<svg xmlns="http://www.w3.org/2000/svg" xmlns:xlink="http://www.w3.org/1999/xlink" contentStyleType="text/css" data-diagram-type="CLASS" height="1209px" preserveAspectRatio="none" style="width:1516px;height:1209px;background:#FFFFFF;" version="1.1" viewBox="0 0 1516 1209" width="1516px" zoomAndPan="magnify"><?plantuml 1.2026.5?><defs/><g><!--cluster Legend--><g class="cluster" data-qualified-name="Legend" data-source-line="2" id="ent0001"><path d="M1210.48,135.07 L1260.8598,135.07 A5.25,5.25 0 0 1 1264.3598,138.57 L1271.3598,160.1379 L1498.48,160.1379 A3.5,3.5 0 0 1 1501.98,163.6379 L1501.98,707.8 A3.5,3.5 0 0 1 1498.48,711.3 L1210.48,711.3 A3.5,3.5 0 0 1 1206.98,707.8 L1206.98,138.57 A3.5,3.5 0 0 1 1210.48,135.07" fill="none" style="stroke:#696969;stroke-width:1;"/><line style="stroke:#696969;stroke-width:1;" x1="1206.98" x2="1271.3598" y1="160.1379" y2="160.1379"/><text fill="#000000" font-family="sans-serif" font-size="14" font-weight="700" lengthAdjust="spacing" textLength="51.3798" x="1210.98" y="152.0359">Legend</text></g><!--class Class--><g class="entity" data-qualified-name="Legend.Class" data-source-line="3" id="ent0002"><rect fill="#F1F1F1" height="48" rx="3.5" ry="3.5" style="stroke:#181818;stroke-width:0.5;" width="65.7259" x="1223.12" y="201.67"/><ellipse cx="1238.12" cy="217.67" fill="#ADD1B2" rx="11" ry="11" style="stroke:#181818;stroke-width:1;"/><path d="M1237.5888,224.5919 Q1235.8388,224.5919 1234.6981,223.8575 Q1233.5731,223.1075 1233.0106,221.7637 Q1232.4638,220.4044 1232.4638,218.6075 Q1232.4638,216.5762 1233.12,215.1231 Q1233.7763,213.67 1235.0575,212.8887 Q1236.3388,212.1075 1238.2138,212.1075 Q1239.1044,212.1075 1239.7763,212.295 Q1240.4481,212.4669 1241.1356,212.8106 L1240.3231,214.8262 Q1239.6981,214.5137 1239.1513,214.3887 Q1238.62,214.2637 1238.1356,214.2637 Q1236.9638,214.2637 1236.2606,214.795 Q1235.5575,215.3262 1235.2606,216.2794 Q1234.9638,217.2325 1234.9638,218.4981 Q1234.9638,220.5137 1235.6825,221.4825 Q1236.4013,222.4356 1237.995,222.4356 Q1238.5888,222.4356 1239.2138,222.2794 Q1239.8388,222.1231 1240.6669,221.7481 L1240.6669,223.9669 Q1239.9325,224.2794 1239.1356,224.4356 Q1238.3544,224.5919 1237.5888,224.5919 Z " fill="#000000"/><text fill="#000000" font-family="sans-serif" font-size="14" lengthAdjust="spacing" textLength="33.7259" x="1252.12" y="223.102">Class</text><line style="stroke:#181818;stroke-width:0.5;" x1="1224.12" x2="1287.8459" y1="233.67" y2="233.67"/><line style="stroke:#181818;stroke-width:0.5;" x1="1224.12" x2="1287.8459" y1="241.67" y2="241.67"/></g><!--class Visibility--><g class="entity" data-qualified-name="Legend.Visibility" data-source-line="4" id="ent0003"><rect fill="#F1F1F1" height="105.2038" rx="3.5" ry="3.5" style="stroke:#181818;stroke-width:0.5;" width="129.6276" x="1334.17" y="173.07"/><ellipse cx="1368.816" cy="189.07" fill="#ADD1B2" rx="11" ry="11" style="stroke:#181818;stroke-width:1;"/><path d="M1368.2848,195.9919 Q1366.5348,195.9919 1365.3941,195.2575 Q1364.2691,194.5075 1363.7066,193.1637 Q1363.1598,191.8044 1363.1598,190.0075 Q1363.1598,187.9762 1363.816,186.5231 Q1364.4723,185.07 1365.7535,184.2887 Q1367.0348,183.5075 1368.9098,183.5075 Q1369.8004,183.5075 1370.4723,183.695 Q1371.1441,183.8669 1371.8316,184.2106 L1371.0191,186.2262 Q1370.3941,185.9137 1369.8473,185.7887 Q1369.316,185.6637 1368.8316,185.6637 Q1367.6598,185.6637 1366.9566,186.195 Q1366.2535,186.7262 1365.9566,187.6794 Q1365.6598,188.6325 1365.6598,189.8981 Q1365.6598,191.9137 1366.3785,192.8825 Q1367.0973,193.8356 1368.691,193.8356 Q1369.2848,193.8356 1369.9098,193.6794 Q1370.5348,193.5231 1371.3629,193.1481 L1371.3629,195.3669 Q1370.6285,195.6794 1369.8316,195.8356 Q1369.0504,195.9919 1368.2848,195.9919 Z " fill="#000000"/><text fill="#000000" font-family="sans-serif" font-size="14" lengthAdjust="spacing" textLength="53.9698" x="1387.1818" y="194.502">Visibility</text><line style="stroke:#181818;stroke-width:0.5;" x1="1335.17" x2="1462.7976" y1="205.07" y2="205.07"/><g data-visibility-modifier="PRIVATE_FIELD"><rect fill="none" height="6" style="stroke:#C82930;stroke-width:1;" width="6" x="1342.17" y="217.104"/></g><text fill="#000000" font-family="sans-serif" font-size="14" lengthAdjust="spacing" textLength="78.1057" x="1354.17" y="224.0359">private field</text><g data-visibility-modifier="PROTECTED_FIELD"><polygon fill="none" points="1345.17,234.1719,1349.17,238.1719,1345.17,242.1719,1341.17,238.1719" style="stroke:#B38D22;stroke-width:1;stroke-linejoin:miter;stroke-miterlimit:10;"/></g><text fill="#000000" font-family="sans-serif" font-size="14" lengthAdjust="spacing" textLength="96.2776" x="1354.17" y="243.1039">protected field</text><line style="stroke:#181818;stroke-width:0.5;" x1="1335.17" x2="1462.7976" y1="251.2058" y2="251.2058"/><g data-visibility-modifier="PUBLIC_METHOD"><ellipse cx="1345.17" cy="266.2398" fill="#84BE84" rx="3" ry="3" style="stroke:#038048;stroke-width:1;"/></g><text fill="#000000" font-family="sans-serif" font-size="14" lengthAdjust="spacing" textLength="103.6276" x="1354.17" y="270.1718">public method()</text></g><!--class Dependency--><g class="entity" data-qualified-name="Legend.Dependency" data-source-line="9" id="ent0004"><rect fill="#F1F1F1" height="48" rx="3.5" ry="3.5" style="stroke:#181818;stroke-width:0.5;" width="114.2917" x="1222.84" y="647.3"/><ellipse cx="1237.84" cy="663.3" fill="#ADD1B2" rx="11" ry="11" style="stroke:#181818;stroke-width:1;"/><path d="M1237.3088,670.2219 Q1235.5588,670.2219 1234.4181,669.4875 Q1233.2931,668.7375 1232.7306,667.3937 Q1232.1838,666.0344 1232.1838,664.2375 Q1232.1838,662.2062 1232.84,660.7531 Q1233.4963,659.3 1234.7775,658.5187 Q1236.0588,657.7375 1237.9338,657.7375 Q1238.8244,657.7375 1239.4963,657.925 Q1240.1681,658.0969 1240.8556,658.4406 L1240.0431,660.4562 Q1239.4181,660.1437 1238.8713,660.0187 Q1238.34,659.8937 1237.8556,659.8937 Q1236.6838,659.8937 1235.9806,660.425 Q1235.2775,660.9562 1234.9806,661.9094 Q1234.6838,662.8625 1234.6838,664.1281 Q1234.6838,666.1437 1235.4025,667.1125 Q1236.1213,668.0656 1237.715,668.0656 Q1238.3088,668.0656 1238.9338,667.9094 Q1239.5588,667.7531 1240.3869,667.3781 L1240.3869,669.5969 Q1239.6525,669.9094 1238.8556,670.0656 Q1238.0744,670.2219 1237.3088,670.2219 Z " fill="#000000"/><text fill="#000000" font-family="sans-serif" font-size="14" lengthAdjust="spacing" textLength="82.2917" x="1251.84" y="668.732">Dependency</text><line style="stroke:#181818;stroke-width:0.5;" x1="1223.84" x2="1336.1317" y1="679.3" y2="679.3"/><line style="stroke:#181818;stroke-width:0.5;" x1="1223.84" x2="1336.1317" y1="687.3" y2="687.3"/></g><!--class Aggregation--><g class="entity" data-qualified-name="Legend.Aggregation" data-source-line="10" id="ent0006"><rect fill="#F1F1F1" height="48" rx="3.5" ry="3.5" style="stroke:#181818;stroke-width:0.5;" width="114.0957" x="1371.94" y="647.3"/><ellipse cx="1386.94" cy="663.3" fill="#ADD1B2" rx="11" ry="11" style="stroke:#181818;stroke-width:1;"/><path d="M1386.4087,670.2219 Q1384.6587,670.2219 1383.5181,669.4875 Q1382.3931,668.7375 1381.8306,667.3937 Q1381.2837,666.0344 1381.2837,664.2375 Q1381.2837,662.2062 1381.94,660.7531 Q1382.5962,659.3 1383.8775,658.5187 Q1385.1587,657.7375 1387.0337,657.7375 Q1387.9244,657.7375 1388.5962,657.925 Q1389.2681,658.0969 1389.9556,658.4406 L1389.1431,660.4562 Q1388.5181,660.1437 1387.9712,660.0187 Q1387.44,659.8937 1386.9556,659.8937 Q1385.7837,659.8937 1385.0806,660.425 Q1384.3775,660.9562 1384.0806,661.9094 Q1383.7837,662.8625 1383.7837,664.1281 Q1383.7837,666.1437 1384.5025,667.1125 Q1385.2212,668.0656 1386.815,668.0656 Q1387.4087,668.0656 1388.0337,667.9094 Q1388.6587,667.7531 1389.4869,667.3781 L1389.4869,669.5969 Q1388.7525,669.9094 1387.9556,670.0656 Q1387.1744,670.2219 1386.4087,670.2219 Z " fill="#000000"/><text fill="#000000" font-family="sans-serif" font-size="14" lengthAdjust="spacing" textLength="82.0957" x="1400.94" y="668.732">Aggregation</text><line style="stroke:#181818;stroke-width:0.5;" x1="1372.94" x2="1485.0357" y1="679.3" y2="679.3"/><line style="stroke:#181818;stroke-width:0.5;" x1="1372.94" x2="1485.0357" y1="687.3" y2="687.3"/></g><!--class C_0008621096355354352768--><g class="entity" data-qualified-name="C_0008621096355354352768" data-source-line="13" id="ent0009"><rect fill="#F1F1F1" height="295.8829" rx="3.5" ry="3.5" style="stroke:#181818;stroke-width:0.5;" width="236.8532" x="301.56" y="898.24"/><ellipse cx="401.6386" cy="914.24" fill="#ADD1B2" rx="11" ry="11" style="stroke:#181818;stroke-width:1;"/><path d="M401.1074,921.1619 Q399.3574,921.1619 398.2168,920.4275 Q397.0918,919.6775 396.5293,918.3337 Q395.9824,916.9744 395.9824,915.1775 Q395.9824,913.1462 396.6386,911.6931 Q397.2949,910.24 398.5761,909.4587 Q399.8574,908.6775 401.7324,908.6775 Q402.623,908.6775 403.2949,908.865 Q403.9668,909.0369 404.6543,909.3806 L403.8418,911.3962 Q403.2168,911.0837 402.6699,910.9587 Q402.1386,910.8337 401.6543,910.8337 Q400.4824,910.8337 399.7793,911.365 Q399.0761,911.8962 398.7793,912.8494 Q398.4824,913.8025 398.4824,915.0681 Q398.4824,917.0837 399.2011,918.0525 Q399.9199,919.0056 401.5136,919.0056 Q402.1074,919.0056 402.7324,918.8494 Q403.3574,918.6931 404.1855,918.3181 L404.1855,920.5369 Q403.4511,920.8494 402.6543,921.0056 Q401.873,921.1619 401.1074,921.1619 Z " fill="#000000"/><text fill="#000000" font-family="sans-serif" font-size="14" lengthAdjust="spacing" textLength="28.1959" x="422.1386" y="919.672">Grid</text><line style="stroke:#181818;stroke-width:0.5;" x1="302.56" x2="537.4132" y1="930.24" y2="930.24"/><g data-visibility-modifier="PUBLIC_METHOD"><ellipse cx="312.56" cy="945.274" fill="#84BE84" rx="3" ry="3" style="stroke:#038048;stroke-width:1;"/></g><text fill="#000000" font-family="sans-serif" font-size="14" lengthAdjust="spacing" textLength="191.8553" x="321.56" y="949.2059">cellInGrid(int idx) const : bool</text><g data-visibility-modifier="PUBLIC_METHOD"><ellipse cx="312.56" cy="964.3419" fill="#84BE84" rx="3" ry="3" style="stroke:#038048;stroke-width:1;"/></g><text fill="#000000" font-family="sans-serif" font-size="14" lengthAdjust="spacing" textLength="203.8952" x="321.56" y="968.2739">cellInGrid(int3 coo) const : bool</text><g data-visibility-modifier="PUBLIC_METHOD"><ellipse cx="312.56" cy="983.4098" fill="#84BE84" rx="3" ry="3" style="stroke:#038048;stroke-width:1;"/></g><text fill="#000000" font-family="sans-serif" font-size="14" lengthAdjust="spacing" textLength="210.8532" x="321.56" y="987.3418">coord2index(int3 coo) const : int</text><g data-visibility-modifier="PUBLIC_METHOD"><ellipse cx="312.56" cy="1002.4777" fill="#84BE84" rx="3" ry="3" style="stroke:#038048;stroke-width:1;"/></g><text fill="#000000" font-family="sans-serif" font-size="14" lengthAdjust="spacing" textLength="206.8212" x="321.56" y="1006.4097">index2coord(int idx) const : int3</text><g data-visibility-modifier="PUBLIC_METHOD"><ellipse cx="312.56" cy="1021.5456" fill="#84BE84" rx="3" ry="3" style="stroke:#038048;stroke-width:1;"/></g><text fill="#000000" font-family="sans-serif" font-size="14" lengthAdjust="spacing" textLength="113.1895" x="321.56" y="1025.4776">ncells() const : int</text><g data-visibility-modifier="PUBLIC_METHOD"><ellipse cx="312.56" cy="1040.6135" fill="#84BE84" rx="3" ry="3" style="stroke:#038048;stroke-width:1;"/></g><text fill="#000000" font-family="sans-serif" font-size="14" lengthAdjust="spacing" textLength="122.7375" x="321.56" y="1044.5455">origin() const : int3</text><g data-visibility-modifier="PUBLIC_METHOD"><ellipse cx="312.56" cy="1059.6815" fill="#84BE84" rx="3" ry="3" style="stroke:#038048;stroke-width:1;"/></g><text fill="#000000" font-family="sans-serif" font-size="14" lengthAdjust="spacing" textLength="172.0733" x="321.56" y="1063.6134">overlaps(Grid) const : bool</text><g data-visibility-modifier="PUBLIC_METHOD"><ellipse cx="312.56" cy="1078.7494" fill="#84BE84" rx="3" ry="3" style="stroke:#038048;stroke-width:1;"/></g><text fill="#000000" font-family="sans-serif" font-size="14" lengthAdjust="spacing" textLength="133.4195" x="321.56" y="1082.6814">setOrigin(int3) : void</text><g data-visibility-modifier="PUBLIC_METHOD"><ellipse cx="312.56" cy="1097.8173" fill="#84BE84" rx="3" ry="3" style="stroke:#038048;stroke-width:1;"/></g><text fill="#000000" font-family="sans-serif" font-size="14" lengthAdjust="spacing" textLength="117.9915" x="321.56" y="1101.7493">setSize(int3) : void</text><g data-visibility-modifier="PUBLIC_METHOD"><ellipse cx="312.56" cy="1116.8852" fill="#84BE84" rx="3" ry="3" style="stroke:#038048;stroke-width:1;"/></g><text fill="#000000" font-family="sans-serif" font-size="14" lengthAdjust="spacing" textLength="108.7936" x="321.56" y="1120.8172">size() const : int3</text><g data-visibility-modifier="PUBLIC_METHOD"><ellipse cx="312.56" cy="1135.9531" fill="#84BE84" rx="3" ry="3" style="stroke:#038048;stroke-width:1;"/></g><text fill="#000000" font-family="sans-serif" font-size="14" lengthAdjust="spacing" textLength="169.8753" x="321.56" y="1139.8851">wrap(int3 coo) const : int3</text><line style="stroke:#181818;stroke-width:0.5;" x1="302.56" x2="537.4132" y1="1147.9871" y2="1147.9871"/><g data-visibility-modifier="PRIVATE_FIELD"><rect fill="none" height="6" style="stroke:#C82930;stroke-width:1;" width="6" x="309.56" y="1160.021"/></g><text fill="#000000" font-family="sans-serif" font-size="14" lengthAdjust="spacing" textLength="81.3117" x="321.56" y="1166.953">origin_ : int3</text><g data-visibility-modifier="PRIVATE_FIELD"><rect fill="none" height="6" style="stroke:#C82930;stroke-width:1;" width="6" x="309.56" y="1179.089"/></g><text fill="#000000" font-family="sans-serif" font-size="14" lengthAdjust="spacing" textLength="67.3677" x="321.56" y="1186.0209">size_ : int3</text></g><!--class C_0018151272839730735401--><g class="entity" data-qualified-name="C_0018151272839730735401" data-source-line="30" id="ent0010"><rect fill="#F1F1F1" height="295.8829" rx="3.5" ry="3.5" style="stroke:#181818;stroke-width:0.5;" width="578.8021" x="130.58" y="523.35"/><ellipse cx="395.9841" cy="539.35" fill="#ADD1B2" rx="11" ry="11" style="stroke:#181818;stroke-width:1;"/><path d="M395.4529,546.2719 Q393.7029,546.2719 392.5622,545.5375 Q391.4372,544.7875 390.8747,543.4437 Q390.3279,542.0844 390.3279,540.2875 Q390.3279,538.2562 390.9841,536.8031 Q391.6404,535.35 392.9216,534.5687 Q394.2029,533.7875 396.0779,533.7875 Q396.9685,533.7875 397.6404,533.975 Q398.3122,534.1469 398.9997,534.4906 L398.1872,536.5062 Q397.5622,536.1937 397.0154,536.0687 Q396.4841,535.9437 395.9997,535.9437 Q394.8279,535.9437 394.1247,536.475 Q393.4216,537.0062 393.1247,537.9594 Q392.8279,538.9125 392.8279,540.1781 Q392.8279,542.1937 393.5466,543.1625 Q394.2654,544.1156 395.8591,544.1156 Q396.4529,544.1156 397.0779,543.9594 Q397.7029,543.8031 398.531,543.4281 L398.531,545.6469 Q397.7966,545.9594 396.9997,546.1156 Q396.2185,546.2719 395.4529,546.2719 Z " fill="#000000"/><text fill="#000000" font-family="sans-serif" font-size="14" lengthAdjust="spacing" textLength="39.4939" x="416.4841" y="544.782">World</text><line style="stroke:#181818;stroke-width:0.5;" x1="131.58" x2="708.3821" y1="555.35" y2="555.35"/><g data-visibility-modifier="PUBLIC_METHOD"><ellipse cx="141.58" cy="570.384" fill="#84BE84" rx="3" ry="3" style="stroke:#038048;stroke-width:1;"/></g><text fill="#000000" font-family="sans-serif" font-size="14" lengthAdjust="spacing" textLength="155.7774" x="150.58" y="574.3159">cellVolume() const : real</text><g data-visibility-modifier="PUBLIC_METHOD"><ellipse cx="141.58" cy="589.4519" fill="#84BE84" rx="3" ry="3" style="stroke:#038048;stroke-width:1;"/></g><text fill="#000000" font-family="sans-serif" font-size="14" lengthAdjust="spacing" textLength="138.4594" x="150.58" y="593.3839">cellsize() const : real3</text><g data-visibility-modifier="PUBLIC_METHOD"><ellipse cx="141.58" cy="608.5198" fill="#84BE84" rx="3" ry="3" style="stroke:#038048;stroke-width:1;"/></g><text fill="#000000" font-family="sans-serif" font-size="14" lengthAdjust="spacing" textLength="552.8021" x="150.58" y="612.4518">checkPbcCompatibility(const Grid mastergrid, const int3 pbcRepetitions) const : void</text><g data-visibility-modifier="PUBLIC_METHOD"><ellipse cx="141.58" cy="627.5877" fill="#84BE84" rx="3" ry="3" style="stroke:#038048;stroke-width:1;"/></g><text fill="#000000" font-family="sans-serif" font-size="14" lengthAdjust="spacing" textLength="388.4285" x="150.58" y="631.5197">checkPbcRepetitions(const int3 pbcRepetitions) const : void</text><g data-visibility-modifier="PUBLIC_METHOD"><ellipse cx="141.58" cy="646.6556" fill="#84BE84" rx="3" ry="3" style="stroke:#038048;stroke-width:1;"/></g><text fill="#000000" font-family="sans-serif" font-size="14" lengthAdjust="spacing" textLength="200.8992" x="150.58" y="650.5876">inMastergrid(Grid) const : bool</text><g data-visibility-modifier="PUBLIC_METHOD"><ellipse cx="141.58" cy="665.7235" fill="#84BE84" rx="3" ry="3" style="stroke:#038048;stroke-width:1;"/></g><text fill="#000000" font-family="sans-serif" font-size="14" lengthAdjust="spacing" textLength="159.8654" x="150.58" y="669.6555">mastergrid() const : Grid</text><g data-visibility-modifier="PUBLIC_METHOD"><ellipse cx="141.58" cy="684.7915" fill="#84BE84" rx="3" ry="3" style="stroke:#038048;stroke-width:1;"/></g><text fill="#000000" font-family="sans-serif" font-size="14" lengthAdjust="spacing" textLength="221.4511" x="150.58" y="688.7234">pbcRepetitions() const : const int3</text><g data-visibility-modifier="PUBLIC_METHOD"><ellipse cx="141.58" cy="703.8594" fill="#84BE84" rx="3" ry="3" style="stroke:#038048;stroke-width:1;"/></g><text fill="#000000" font-family="sans-serif" font-size="14" lengthAdjust="spacing" textLength="113.4696" x="150.58" y="707.7914">time() const : real</text><g data-visibility-modifier="PUBLIC_METHOD"><ellipse cx="141.58" cy="722.9273" fill="#84BE84" rx="3" ry="3" style="stroke:#038048;stroke-width:1;"/></g><text fill="#000000" font-family="sans-serif" font-size="14" lengthAdjust="spacing" textLength="214.7312" x="150.58" y="726.8593">timesolver() const : TimeSolver &amp;</text><line style="stroke:#181818;stroke-width:0.5;" x1="131.58" x2="708.3821" y1="734.9613" y2="734.9613"/><g data-visibility-modifier="PROTECTED_FIELD"><polygon fill="none" points="141.58,744.9952,145.58,748.9952,141.58,752.9952,137.58,748.9952" style="stroke:#B38D22;stroke-width:1;stroke-linejoin:miter;stroke-miterlimit:10;"/></g><text fill="#000000" font-family="sans-serif" font-size="14" lengthAdjust="spacing" textLength="97.0336" x="150.58" y="753.9272">cellsize_ : real3</text><g data-visibility-modifier="PROTECTED_FIELD"><polygon fill="none" points="141.58,764.0631,145.58,768.0631,141.58,772.0631,137.58,768.0631" style="stroke:#B38D22;stroke-width:1;stroke-linejoin:miter;stroke-miterlimit:10;"/></g><text fill="#000000" font-family="sans-serif" font-size="14" lengthAdjust="spacing" textLength="118.4396" x="150.58" y="772.9951">mastergrid_ : Grid</text><g data-visibility-modifier="PROTECTED_FIELD"><polygon fill="none" points="141.58,783.131,145.58,787.131,141.58,791.131,137.58,787.131" style="stroke:#B38D22;stroke-width:1;stroke-linejoin:miter;stroke-miterlimit:10;"/></g><text fill="#000000" font-family="sans-serif" font-size="14" lengthAdjust="spacing" textLength="140.7834" x="150.58" y="792.063">pbcRepetitions_ : int3</text><g data-visibility-modifier="PROTECTED_FIELD"><polygon fill="none" points="141.58,802.199,145.58,806.199,141.58,810.199,137.58,806.199" style="stroke:#B38D22;stroke-width:1;stroke-linejoin:miter;stroke-miterlimit:10;"/></g><text fill="#000000" font-family="sans-serif" font-size="14" lengthAdjust="spacing" textLength="275.0429" x="150.58" y="811.1309">timesolver_ : std::unique_ptr&lt;TimeSolver&gt;</text></g><!--class C_0014032891358763643253--><g class="entity" data-qualified-name="C_0014032891358763643253" data-source-line="47" id="ent0011"><rect fill="#F1F1F1" height="437.3583" rx="3.5" ry="3.5" style="stroke:#181818;stroke-width:0.5;" width="354.4107" x="335.78" y="7"/><ellipse cx="484.9494" cy="23" fill="#ADD1B2" rx="11" ry="11" style="stroke:#181818;stroke-width:1;"/><path d="M484.4182,29.9219 Q482.6682,29.9219 481.5276,29.1875 Q480.4026,28.4375 479.8401,27.0938 Q479.2932,25.7344 479.2932,23.9375 Q479.2932,21.9063 479.9494,20.4531 Q480.6057,19 481.8869,18.2188 Q483.1682,17.4375 485.0432,17.4375 Q485.9338,17.4375 486.6057,17.625 Q487.2776,17.7969 487.9651,18.1406 L487.1526,20.1563 Q486.5276,19.8438 485.9807,19.7188 Q485.4494,19.5938 484.9651,19.5938 Q483.7932,19.5938 483.0901,20.125 Q482.3869,20.6563 482.0901,21.6094 Q481.7932,22.5625 481.7932,23.8281 Q481.7932,25.8438 482.5119,26.8125 Q483.2307,27.7656 484.8244,27.7656 Q485.4182,27.7656 486.0432,27.6094 Q486.6682,27.4531 487.4963,27.0781 L487.4963,29.2969 Q486.7619,29.6094 485.9651,29.7656 Q485.1838,29.9219 484.4182,29.9219 Z " fill="#000000"/><text fill="#000000" font-family="sans-serif" font-size="14" lengthAdjust="spacing" textLength="47.5718" x="505.4494" y="28.432">System</text><line style="stroke:#181818;stroke-width:0.5;" x1="336.78" x2="689.1907" y1="39" y2="39"/><g data-visibility-modifier="PUBLIC_METHOD"><ellipse cx="346.78" cy="54.034" fill="#84BE84" rx="3" ry="3" style="stroke:#038048;stroke-width:1;"/></g><text fill="#000000" font-family="sans-serif" font-size="14" lengthAdjust="spacing" textLength="312.3808" x="355.78" y="57.9659">operator=(const System &amp;) = deleted : System &amp;</text><g data-visibility-modifier="PUBLIC_METHOD"><ellipse cx="346.78" cy="73.1019" fill="#84BE84" rx="3" ry="3" style="stroke:#038048;stroke-width:1;"/></g><text fill="#000000" font-family="sans-serif" font-size="14" lengthAdjust="spacing" textLength="283.3869" x="355.78" y="77.0339">operator=(System &amp;&amp;) = deleted : System &amp;</text><line style="stroke:#181818;stroke-width:1;stroke-dasharray:1,2;" x1="336.78" x2="689.1907" y1="85.1358" y2="85.1358"/><g data-visibility-modifier="PUBLIC_METHOD"><ellipse cx="346.78" cy="100.1698" fill="#84BE84" rx="3" ry="3" style="stroke:#038048;stroke-width:1;"/></g><text fill="#000000" font-family="sans-serif" font-size="14" lengthAdjust="spacing" textLength="192.0372" x="355.78" y="104.1018">cellPosition(int3) const : real3</text><g data-visibility-modifier="PUBLIC_METHOD"><ellipse cx="346.78" cy="119.2377" fill="#84BE84" rx="3" ry="3" style="stroke:#038048;stroke-width:1;"/></g><text fill="#000000" font-family="sans-serif" font-size="14" lengthAdjust="spacing" textLength="144.4934" x="355.78" y="123.1697">cellsInGeo() const : int</text><g data-visibility-modifier="PUBLIC_METHOD"><ellipse cx="346.78" cy="138.3056" fill="#84BE84" rx="3" ry="3" style="stroke:#038048;stroke-width:1;"/></g><text fill="#000000" font-family="sans-serif" font-size="14" lengthAdjust="spacing" textLength="138.4594" x="355.78" y="142.2376">cellsize() const : real3</text><g data-visibility-modifier="PUBLIC_METHOD"><ellipse cx="346.78" cy="157.3735" fill="#84BE84" rx="3" ry="3" style="stroke:#038048;stroke-width:1;"/></g><text fill="#000000" font-family="sans-serif" font-size="14" lengthAdjust="spacing" textLength="133.8255" x="355.78" y="161.3055">center() const : real3</text><g data-visibility-modifier="PUBLIC_METHOD"><ellipse cx="346.78" cy="176.4415" fill="#84BE84" rx="3" ry="3" style="stroke:#038048;stroke-width:1;"/></g><text fill="#000000" font-family="sans-serif" font-size="14" lengthAdjust="spacing" textLength="251.341" x="355.78" y="180.3734">checkIdxInRegions(int idx) const : void</text><g data-visibility-modifier="PUBLIC_METHOD"><ellipse cx="346.78" cy="195.5094" fill="#84BE84" rx="3" ry="3" style="stroke:#038048;stroke-width:1;"/></g><text fill="#000000" font-family="sans-serif" font-size="14" lengthAdjust="spacing" textLength="139.1174" x="355.78" y="199.4414">cu() const : CuSystem</text><g data-visibility-modifier="PUBLIC_METHOD"><ellipse cx="346.78" cy="214.5773" fill="#84BE84" rx="3" ry="3" style="stroke:#038048;stroke-width:1;"/></g><text fill="#000000" font-family="sans-serif" font-size="14" lengthAdjust="spacing" textLength="215.8372" x="355.78" y="218.5093">extent() const : std::array&lt;real,6&gt;</text><g data-visibility-modifier="PUBLIC_METHOD"><ellipse cx="346.78" cy="233.6452" fill="#84BE84" rx="3" ry="3" style="stroke:#038048;stroke-width:1;"/></g><text fill="#000000" font-family="sans-serif" font-size="14" lengthAdjust="spacing" textLength="289.4348" x="355.78" y="237.5772">geometry() const : const GpuBuffer&lt;bool&gt; &amp;</text><g data-visibility-modifier="PUBLIC_METHOD"><ellipse cx="346.78" cy="252.7131" fill="#84BE84" rx="3" ry="3" style="stroke:#038048;stroke-width:1;"/></g><text fill="#000000" font-family="sans-serif" font-size="14" lengthAdjust="spacing" textLength="113.4836" x="355.78" y="256.6451">grid() const : Grid</text><g data-visibility-modifier="PUBLIC_METHOD"><ellipse cx="346.78" cy="271.781" fill="#84BE84" rx="3" ry="3" style="stroke:#038048;stroke-width:1;"/></g><text fill="#000000" font-family="sans-serif" font-size="14" lengthAdjust="spacing" textLength="130.5635" x="355.78" y="275.713">origin() const : real3</text><g data-visibility-modifier="PUBLIC_METHOD"><ellipse cx="346.78" cy="290.849" fill="#84BE84" rx="3" ry="3" style="stroke:#038048;stroke-width:1;"/></g><text fill="#000000" font-family="sans-serif" font-size="14" lengthAdjust="spacing" textLength="328.4107" x="355.78" y="294.7809">regions() const : const GpuBuffer&lt;unsigned int&gt; &amp;</text><g data-visibility-modifier="PUBLIC_METHOD"><ellipse cx="346.78" cy="309.9169" fill="#84BE84" rx="3" ry="3" style="stroke:#038048;stroke-width:1;"/></g><text fill="#000000" font-family="sans-serif" font-size="14" lengthAdjust="spacing" textLength="186.2413" x="355.78" y="313.8489">world() const : const World *</text><line style="stroke:#181818;stroke-width:0.5;" x1="336.78" x2="689.1907" y1="321.9508" y2="321.9508"/><g data-visibility-modifier="PRIVATE_FIELD"><rect fill="none" height="6" style="stroke:#C82930;stroke-width:1;" width="6" x="343.78" y="333.9848"/></g><text fill="#000000" font-family="sans-serif" font-size="14" lengthAdjust="spacing" textLength="103.0676" x="355.78" y="340.9168">cellsInGeo_ : int</text><g data-visibility-modifier="PRIVATE_FIELD"><rect fill="none" height="6" style="stroke:#C82930;stroke-width:1;" width="6" x="343.78" y="353.0527"/></g><text fill="#000000" font-family="sans-serif" font-size="14" lengthAdjust="spacing" textLength="194.8792" x="355.78" y="359.9847">geometry_ : GpuBuffer&lt;bool&gt;</text><g data-visibility-modifier="PRIVATE_FIELD"><rect fill="none" height="6" style="stroke:#C82930;stroke-width:1;" width="6" x="343.78" y="372.1206"/></g><text fill="#000000" font-family="sans-serif" font-size="14" lengthAdjust="spacing" textLength="72.0577" x="355.78" y="379.0526">grid_ : Grid</text><g data-visibility-modifier="PRIVATE_FIELD"><rect fill="none" height="6" style="stroke:#C82930;stroke-width:1;" width="6" x="343.78" y="391.1885"/></g><text fill="#000000" font-family="sans-serif" font-size="14" lengthAdjust="spacing" textLength="233.8551" x="355.78" y="398.1205">regions_ : GpuBuffer&lt;unsigned int&gt;</text><g data-visibility-modifier="PUBLIC_FIELD"><ellipse cx="346.78" cy="413.2565" fill="none" rx="3" ry="3" style="stroke:#038048;stroke-width:1;"/></g><text fill="#000000" font-family="sans-serif" font-size="14" lengthAdjust="spacing" textLength="277.0309" x="355.78" y="417.1884">uniqueRegions : std::vector&lt;unsigned int&gt;</text><g data-visibility-modifier="PRIVATE_FIELD"><rect fill="none" height="6" style="stroke:#C82930;stroke-width:1;" width="6" x="343.78" y="429.3244"/></g><text fill="#000000" font-family="sans-serif" font-size="14" lengthAdjust="spacing" textLength="144.8154" x="355.78" y="436.2564">world_ : const World *</text></g><!--class C_0000452500986261838268--><g class="entity" data-qualified-name="C_0000452500986261838268" data-source-line="72" id="ent0012"><rect fill="#F1F1F1" height="257.7471" rx="3.5" ry="3.5" style="stroke:#181818;stroke-width:0.5;" width="443.2125" x="744.38" y="542.42"/><ellipse cx="929.2004" cy="558.42" fill="#ADD1B2" rx="11" ry="11" style="stroke:#181818;stroke-width:1;"/><path d="M928.6691,565.3419 Q926.9191,565.3419 925.7785,564.6075 Q924.6535,563.8575 924.091,562.5137 Q923.5441,561.1544 923.5441,559.3575 Q923.5441,557.3262 924.2004,555.8731 Q924.8566,554.42 926.1379,553.6387 Q927.4191,552.8575 929.2941,552.8575 Q930.1847,552.8575 930.8566,553.045 Q931.5285,553.2169 932.216,553.5606 L931.4035,555.5762 Q930.7785,555.2637 930.2316,555.1387 Q929.7004,555.0137 929.216,555.0137 Q928.0441,555.0137 927.341,555.545 Q926.6379,556.0762 926.341,557.0294 Q926.0441,557.9825 926.0441,559.2481 Q926.0441,561.2637 926.7629,562.2325 Q927.4816,563.1856 929.0754,563.1856 Q929.6691,563.1856 930.2941,563.0294 Q930.9191,562.8731 931.7472,562.4981 L931.7472,564.7169 Q931.0129,565.0294 930.216,565.1856 Q929.4347,565.3419 928.6691,565.3419 Z " fill="#000000"/><text fill="#000000" font-family="sans-serif" font-size="14" lengthAdjust="spacing" textLength="65.0717" x="949.7004" y="563.852">CuSystem</text><line style="stroke:#181818;stroke-width:0.5;" x1="745.38" x2="1186.5925" y1="574.42" y2="574.42"/><g data-visibility-modifier="PUBLIC_METHOD"><ellipse cx="755.38" cy="589.454" fill="#84BE84" rx="3" ry="3" style="stroke:#038048;stroke-width:1;"/></g><text fill="#000000" font-family="sans-serif" font-size="14" lengthAdjust="spacing" textLength="281.9169" x="764.38" y="593.3859">getRegionIdx(int3 coo) const : unsigned int</text><g data-visibility-modifier="PUBLIC_METHOD"><ellipse cx="755.38" cy="608.5219" fill="#84BE84" rx="3" ry="3" style="stroke:#038048;stroke-width:1;"/></g><text fill="#000000" font-family="sans-serif" font-size="14" lengthAdjust="spacing" textLength="269.877" x="764.38" y="612.4539">getRegionIdx(int idx) const : unsigned int</text><g data-visibility-modifier="PUBLIC_METHOD"><ellipse cx="755.38" cy="627.5898" fill="#84BE84" rx="3" ry="3" style="stroke:#038048;stroke-width:1;"/></g><text fill="#000000" font-family="sans-serif" font-size="14" lengthAdjust="spacing" textLength="218.2451" x="764.38" y="631.5218">inGeometry(int3 coo) const : bool</text><g data-visibility-modifier="PUBLIC_METHOD"><ellipse cx="755.38" cy="646.6577" fill="#84BE84" rx="3" ry="3" style="stroke:#038048;stroke-width:1;"/></g><text fill="#000000" font-family="sans-serif" font-size="14" lengthAdjust="spacing" textLength="206.2052" x="764.38" y="650.5897">inGeometry(int idx) const : bool</text><g data-visibility-modifier="PUBLIC_METHOD"><ellipse cx="755.38" cy="665.7256" fill="#84BE84" rx="3" ry="3" style="stroke:#038048;stroke-width:1;"/></g><text fill="#000000" font-family="sans-serif" font-size="14" lengthAdjust="spacing" textLength="355.8367" x="764.38" y="669.6576">inRegion(unsigned int regionIdx, int3 coo) const : bool</text><g data-visibility-modifier="PUBLIC_METHOD"><ellipse cx="755.38" cy="684.7935" fill="#84BE84" rx="3" ry="3" style="stroke:#038048;stroke-width:1;"/></g><text fill="#000000" font-family="sans-serif" font-size="14" lengthAdjust="spacing" textLength="343.7967" x="764.38" y="688.7255">inRegion(unsigned int regionIdx, int idx) const : bool</text><g data-visibility-modifier="PUBLIC_METHOD"><ellipse cx="755.38" cy="703.8615" fill="#84BE84" rx="3" ry="3" style="stroke:#038048;stroke-width:1;"/></g><text fill="#000000" font-family="sans-serif" font-size="14" lengthAdjust="spacing" textLength="417.2125" x="764.38" y="707.7934">inSameRegion(unsigned int idx1, unsigned int idx2) const : bool</text><line style="stroke:#181818;stroke-width:0.5;" x1="745.38" x2="1186.5925" y1="715.8954" y2="715.8954"/><g data-visibility-modifier="PUBLIC_FIELD"><ellipse cx="755.38" cy="730.9294" fill="none" rx="3" ry="3" style="stroke:#038048;stroke-width:1;"/></g><text fill="#000000" font-family="sans-serif" font-size="14" lengthAdjust="spacing" textLength="130.0595" x="764.38" y="734.8614">cellsize : const real3</text><g data-visibility-modifier="PUBLIC_FIELD"><ellipse cx="755.38" cy="749.9973" fill="none" rx="3" ry="3" style="stroke:#038048;stroke-width:1;"/></g><text fill="#000000" font-family="sans-serif" font-size="14" lengthAdjust="spacing" textLength="154.7274" x="764.38" y="753.9293">geometry : const bool *</text><g data-visibility-modifier="PUBLIC_FIELD"><ellipse cx="755.38" cy="769.0652" fill="none" rx="3" ry="3" style="stroke:#038048;stroke-width:1;"/></g><text fill="#000000" font-family="sans-serif" font-size="14" lengthAdjust="spacing" textLength="105.0836" x="764.38" y="772.9972">grid : const Grid</text><g data-visibility-modifier="PUBLIC_FIELD"><ellipse cx="755.38" cy="788.1331" fill="none" rx="3" ry="3" style="stroke:#038048;stroke-width:1;"/></g><text fill="#000000" font-family="sans-serif" font-size="14" lengthAdjust="spacing" textLength="193.7032" x="764.38" y="792.0651">regions : const unsigned int *</text></g><!--link Class to Dependency--><!--reverse link Visibility to Aggregation--><g class="link" data-entity-1="ent0003" data-entity-2="ent0006" data-link-type="aggregation" data-source-line="10" id="lnk7"><path codeLine="10" d="M1403.2906,290.4026 C1409.8206,386.8526 1422.78,578.55 1427.42,647.17" fill="none" id="Visibility-backto-Aggregation" style="stroke:#454645;stroke-width:1;"/><polygon fill="none" points="1402.48,278.43,1398.8944,284.6865,1403.2906,290.4026,1406.8762,284.1461,1402.48,278.43" style="stroke:#454645;stroke-width:1;stroke-linejoin:miter;stroke-miterlimit:10;"/><text fill="#000000" font-family="sans-serif" font-size="13" lengthAdjust="spacing" textLength="76.2321" x="1417.67" y="489.247">Aggregation</text></g><!--link Visibility to Dependency--><g class="link" data-entity-1="ent0003" data-entity-2="ent0004" data-link-type="dependency" data-source-line="11" id="lnk8"><path codeLine="11" d="M1384.12,278.77 C1369.91,328.83 1348.05,406.64 1329.98,474.35 C1313.37,536.6 1296.0968,605.4278 1286.9568,642.1778" fill="none" id="Visibility-to-Dependency" style="stroke:#454645;stroke-width:1;"/><polygon fill="#454645" points="1285.75,647.03,1291.8039,639.2615,1286.9568,642.1778,1284.0404,637.3306,1285.75,647.03" style="stroke:#454645;stroke-width:1;stroke-linejoin:miter;stroke-miterlimit:10;"/><text fill="#000000" font-family="sans-serif" font-size="13" lengthAdjust="spacing" textLength="76.4141" x="1330.98" y="489.247">Dependency</text></g><!--reverse link C_0018151272839730735401 to C_0008621096355354352768--><g class="link" data-entity-1="ent0010" data-entity-2="ent0009" data-link-type="aggregation" data-source-line="87" id="lnk13"><path codeLine="87" d="M419.98,831.67 C419.98,857.42 419.98,872.21 419.98,897.96" fill="none" id="C_0018151272839730735401-backto-C_0008621096355354352768" style="stroke:#454645;stroke-width:1;"/><polygon fill="none" points="419.98,819.67,415.98,825.67,419.98,831.67,423.98,825.67,419.98,819.67" style="stroke:#454645;stroke-width:1;stroke-linejoin:miter;stroke-miterlimit:10;"/><g data-visibility-modifier="PROTECTED_METHOD"><polygon fill="none" points="425.98,854.593,429.98,858.593,425.98,862.593,421.98,858.593" style="stroke:#B38D22;stroke-width:1;stroke-linejoin:miter;stroke-miterlimit:10;"/></g><text fill="#000000" font-family="sans-serif" font-size="13" lengthAdjust="spacing" textLength="73.5541" x="432.98" y="864.137">mastergrid_</text></g><!--link C_0014032891358763643253 to C_0018151272839730735401--><g class="link" data-entity-1="ent0011" data-entity-2="ent0010" data-link-type="dependency" data-source-line="88" id="lnk14"><path codeLine="88" d="M467.3,444.59 C461.72,471.21 457.1457,493.0163 451.8557,518.2563" fill="none" id="C_0014032891358763643253-to-C_0018151272839730735401" style="stroke:#454645;stroke-width:1;"/><polygon fill="#454645" points="450.83,523.15,456.5911,515.1619,451.8557,518.2563,448.7612,513.5209,450.83,523.15" style="stroke:#454645;stroke-width:1;stroke-linejoin:miter;stroke-miterlimit:10;"/><g data-visibility-modifier="PRIVATE_METHOD"><rect fill="none" height="6" style="stroke:#C82930;stroke-width:1;" width="6" x="463.92" y="481.703"/></g><text fill="#000000" font-family="sans-serif" font-size="13" lengthAdjust="spacing" textLength="40.573" x="473.92" y="489.247">world_</text></g><!--reverse link C_0014032891358763643253 to C_0008621096355354352768--><g class="link" data-entity-1="ent0011" data-entity-2="ent0009" data-link-type="aggregation" data-source-line="89" id="lnk15"><path codeLine="89" d="M324.7203,300.5527 C227.1103,348.5227 125.41,417.78 68.98,523.35 C7,639.33 6,703.8 68.98,819.24 C118.01,909.1 219.79,968.58 301.19,1003.85" fill="none" id="C_0014032891358763643253-backto-C_0008621096355354352768" style="stroke:#454645;stroke-width:1;"/><polygon fill="none" points="335.49,295.26,328.3409,294.3165,324.7203,300.5527,331.8694,301.4963,335.49,295.26" style="stroke:#454645;stroke-width:1;stroke-linejoin:miter;stroke-miterlimit:10;"/><g data-visibility-modifier="PRIVATE_METHOD"><rect fill="none" height="6" style="stroke:#C82930;stroke-width:1;" width="6" x="71.98" y="669.153"/></g><text fill="#000000" font-family="sans-serif" font-size="13" lengthAdjust="spacing" textLength="30.485" x="81.98" y="676.697">grid_</text></g><!--reverse link C_0014032891358763643253 to C_0000452500986261838268--><g class="link" data-entity-1="ent0011" data-entity-2="ent0012" data-link-type="dependency" data-source-line="90" id="lnk16"><path codeLine="90" d="M693.9724,403.9083 C742.2124,451.1483 789.99,497.95 835.14,542.16" fill="none" id="C_0014032891358763643253-backto-C_0000452500986261838268" style="stroke:#454645;stroke-width:1;stroke-dasharray:7,7;"/><polygon fill="#454645" points="690.4,400.41,694.0316,409.5649,693.9724,403.9083,699.6289,403.8491,690.4,400.41" style="stroke:#454645;stroke-width:1;stroke-linejoin:miter;stroke-miterlimit:10;"/><g data-visibility-modifier="PUBLIC_METHOD"><ellipse cx="786.06" cy="484.703" fill="none" rx="3" ry="3" style="stroke:#038048;stroke-width:1;"/></g><text fill="#000000" font-family="sans-serif" font-size="13" lengthAdjust="spacing" textLength="49.79" x="793.06" y="489.247">&#171;friend&#187;</text></g><!--link C_0000452500986261838268 to C_0014032891358763643253--><g class="link" data-entity-1="ent0012" data-entity-2="ent0011" data-link-type="dependency" data-source-line="91" id="lnk17"><path codeLine="91" d="M900.91,541.97 C886.11,518.27 869.29,494.62 850.98,474.35 C804.54,422.93 749.937,378.3845 694.567,339.0745" fill="none" id="C_0000452500986261838268-to-C_0014032891358763643253" style="stroke:#454645;stroke-width:1;stroke-dasharray:7,7;"/><polygon fill="#454645" points="690.49,336.18,695.513,344.6517,694.567,339.0745,700.1442,338.1285,690.49,336.18" style="stroke:#454645;stroke-width:1;stroke-linejoin:miter;stroke-miterlimit:10;"/></g><!--reverse link C_0000452500986261838268 to C_0008621096355354352768--><g class="link" data-entity-1="ent0012" data-entity-2="ent0009" data-link-type="aggregation" data-source-line="92" id="lnk18"><path codeLine="92" d="M768.1707,807.388 C688.7407,861.638 608.54,916.41 538.58,964.18" fill="none" id="C_0000452500986261838268-backto-C_0008621096355354352768" style="stroke:#454645;stroke-width:1;"/><polygon fill="none" points="778.08,800.62,770.8694,800.7009,768.1707,807.388,775.3813,807.3071,778.08,800.62" style="stroke:#454645;stroke-width:1;stroke-linejoin:miter;stroke-miterlimit:10;"/><g data-visibility-modifier="PUBLIC_METHOD"><ellipse cx="698.98" cy="859.593" fill="none" rx="3" ry="3" style="stroke:#038048;stroke-width:1;"/></g><text fill="#000000" font-family="sans-serif" font-size="13" lengthAdjust="spacing" textLength="24.713" x="705.98" y="864.137">grid</text></g><?plantuml-src ZLRRRjj647tdLsmZ8A5AaUPLDoW2MXSm33X840VkGr0853cY5gQux78fMotoxzrTtYaoxeC5S-RCpDcPmrd-mevm0dJ6U-edJ4dzuDcF03r014c8_bKG2c8_oz2j-AsVdd26zpZ6x28X26bfleznW4x0ZYHKfzAefnIVVGReW24EfMcIKi8WO13MnX_yJsP7-lSZ3aD8_jAtw0z8EG58WWjtjyeHNKU_HH65o6UO96ZTVkf2zKuQZcpb_A4K1tbtHt7u3ldyW3lJD9Tpsp9NSyVp7CzrF7inNvR0CJS_lnP07Dyd8fEA4uPm-3f50Kaonclk2Odx28TxoHM441hQcFDx7S1mYw99fos1ruL4ZA8bebAczW89nH5Er3wOd876VfgfWbYVJmRiSn4cm5DkFnCSIliZ_WVwLc7gvt-XVZfy5aVPxHIzeBMhJBf8KZ_L4_gJqBWPaRMqFCjUs4jdjN3C1P-3QRL6DEIkHlH4ulpKPad1BsVJeoySd7zmXE3vopwu9QUKwwkGbLg0HClGoSyOq8Z_EojZvMdJVV2LIurXeSciILkqgihQWgZ_EnWdd-gQWsDhABNE8u2AritSSZVL5OtXWHO9OqPYBfUMwnitFaeZUY_6EQaQkQixE6dOx2eQaowDUjwJfeYmPInSh_C4_vt3BcLqqrJRDj9ulF3qfqORhkdOovNbUCl5t9cxZkqvRMqCk8KsI0hKPuH-BCTGP4Nlf-WZ2Y46iQpMjRMDhsnZKCCevFM5PFAqvKlJbvde6zyEGFhlxK-a2GdhJACjsVlmzJxv2f4SyzMYA5MOju9lyuAoei4huvbRBZa7drB_iX4bPlEjeaL0-9wdboi9tQNvx_dX07GZnBWLpHfKujK-AjdJalDutZp9S9JmBlDZoVmlOZjS1SYTWNwLMwPfRwarHQyE84NPvSoTRRNg9QKkiiD2qGgPbWslUdRcjnpfGtL9TtV5irPqDOdcIZ9Tp_PCSyNldhcrT9PszqeQS0jDHy0AFbmB0okupUeQtDLB5uj58ulfZzraNSZGTOXBTQhjt8XM76PeFFNRWSC57_qJ3CLoi3L3VPFTIy1rLB-CzV1AqLPYgkqYWizKIh-Hi1G-hJLIM3jrXGn6xp3ntJFw3R96xKshZ2uxyKKqMc6DIdMEnxz1Gd-Z_COmnaMxHjfcSw2OVw5jjyeep32suxj-DEeDud9KYlBX3XAnslayNZ0xYc_T9DBpKpn3_Dx9nEUcQSmDM_dmyF3qgRP9MFrahGpBM23ro5YQhMzk8fuftni1ETtmcOU-VY0qWXiP5C9PFm246IF1Ct823nOXyAF0obo1RNlXqdHDMDY-wovirp_ipS1rvzF_0000?></g></svg>